<?xml version="1.0" encoding="utf-8"?>
<svg version="1.1" id="Layer_1" xmlns="http://www.w3.org/2000/svg" xmlns:xlink="http://www.w3.org/1999/xlink" x="0px" y="0px" viewBox="0 0 122.88 92.2" style="enable-background:new 0 0 122.88 92.2" xml:space="preserve">
<g>
<path class="youtube-tv-icon-path" d="M6.36,0h110.16c3.5,0,6.36,2.86,6.36,6.36v67.08c0,3.5-2.86,6.36-6.36,6.36H6.36C2.86,79.8,0,76.94,0,73.44 V6.36C0,2.86,2.86,0,6.36,0L6.36,0z"/><path class="st0" d="M23.91,82.89h75.06c0.09,0,0.17,0.08,0.17,0.17v8.96c0,0.09-0.08,0.17-0.17,0.17H23.91 c-0.1,0-0.17-0.08-0.17-0.17v-8.96C23.73,82.96,23.81,82.89,23.91,82.89L23.91,82.89z"/>
<polygon class="youtube-tv-icon-polygon" points="46.32,56.92 46.32,21.64 76.56,39.34 46.32,56.92"/>
</g>
</svg>